<svg width="25" height="34" viewBox="0 0 25 34" fill="none" xmlns="http://www.w3.org/2000/svg">
<g clip-path="url(#clip0_363_84)">
<path d="M14.7342 2.98979C7.01557 3.02295 0.792556 9.3185 0.82577 17.0497C0.858985 24.7809 7.13586 31.0227 14.8545 30.9895C18.642 30.9733 22.0667 29.446 24.5749 26.9852C24.8861 26.6776 24.9653 26.2023 24.7637 25.8157C24.562 25.429 24.1298 25.2121 23.6989 25.289C23.0868 25.3979 22.4621 25.4568 21.8183 25.4596C15.7621 25.4856 10.8285 20.5817 10.8024 14.5068C10.7848 10.3943 13.0194 6.80345 16.3425 4.90165C16.7228 4.68127 16.9146 4.24294 16.8191 3.81834C16.7235 3.39375 16.3596 3.07656 15.922 3.04094C15.5281 3.01138 15.1343 2.99432 14.7343 2.99604L14.7342 2.98979Z" fill="#fff"/>
</g>
<defs>
<clipPath id="clip0_363_84">
<rect width="24" height="32" fill="none" transform="translate(0.756836 1.0498) rotate(-0.246149)"/>
</clipPath>
</defs>
</svg>
