<svg width="19" height="24" viewBox="0 0 19 24" fill="none" xmlns="http://www.w3.org/2000/svg">
<path d="M1.15625 4.49063C1.15625 2.01094 3.16719 0 5.64687 0H13.3531C15.8328 0 17.8437 2.01094 17.8437 4.49063C17.8437 6.06094 17.0375 7.44375 15.8141 8.24531C17.0375 9.04688 17.8437 10.4297 17.8437 12C17.8437 14.4797 15.8328 16.4906 13.3531 16.4906H13.2547C12.0922 16.4906 11.0328 16.05 10.2359 15.3234V19.4625C10.2359 21.975 8.17344 24 5.67031 24C3.19531 24 1.15625 21.9938 1.15625 19.5094C1.15625 17.9391 1.9625 16.5562 3.18125 15.7547C1.9625 14.9531 1.15625 13.5703 1.15625 12C1.15625 10.4297 1.9625 9.04688 3.18125 8.24531C1.9625 7.44375 1.15625 6.06094 1.15625 4.49063ZM8.76406 8.98125H5.64687C3.97813 8.98125 2.62812 10.3313 2.62812 12C2.62812 13.6594 3.96875 15.0094 5.62812 15.0187C5.63281 15.0187 5.64219 15.0187 5.64687 15.0187H8.76406V8.98125ZM10.2359 12C10.2359 13.6687 11.5859 15.0187 13.2547 15.0187H13.3531C15.0172 15.0187 16.3719 13.6687 16.3719 12C16.3719 10.3313 15.0172 8.98125 13.3531 8.98125H13.2547C11.5859 8.98125 10.2359 10.3313 10.2359 12ZM5.64687 16.4906C5.64219 16.4906 5.63281 16.4906 5.62812 16.4906C3.96875 16.5 2.62812 17.85 2.62812 19.5094C2.62812 21.1734 3.99687 22.5281 5.67031 22.5281C7.37187 22.5281 8.76406 21.15 8.76406 19.4625V16.4906H5.64687ZM5.64687 1.47187C3.97813 1.47187 2.62812 2.82188 2.62812 4.49063C2.62812 6.15938 3.97813 7.50937 5.64687 7.50937H8.76406V1.47187H5.64687ZM10.2359 7.50937H13.3531C15.0172 7.50937 16.3719 6.15938 16.3719 4.49063C16.3719 2.82188 15.0172 1.47187 13.3531 1.47187H10.2359V7.50937Z" fill="#fff"/>
</svg>
