<svg width="24" height="24" viewBox="0 0 24 24" fill="none" xmlns="http://www.w3.org/2000/svg">
<g clip-path="url(#clip0_296_228)">
<path d="M16.9451 0.0562765C17.1795 0.154714 17.3482 0.365652 17.3951 0.614089L18.3279 5.6719L23.3857 6.60003C23.6342 6.6469 23.8451 6.81565 23.9435 7.05003C24.042 7.2844 24.0138 7.55159 23.8685 7.76253L20.9482 12L23.8685 16.2328C24.0138 16.4438 24.042 16.711 23.9435 16.9453C23.8451 17.1797 23.6342 17.3485 23.3857 17.3953L18.3279 18.3282L17.3951 23.386C17.3482 23.6344 17.1795 23.8453 16.9451 23.9438C16.7107 24.0422 16.4435 24.0141 16.2326 23.8688L11.9998 20.9485L7.76697 23.8688C7.55603 24.0141 7.28884 24.0422 7.05447 23.9438C6.82009 23.8453 6.65134 23.6344 6.60447 23.386L5.67166 18.3282L0.613845 17.3953C0.365407 17.3485 0.15447 17.1797 0.0560324 16.9453C-0.0424051 16.711 -0.0142801 16.4438 0.131032 16.2328L3.05134 12L0.131032 7.76721C-0.0142801 7.55628 -0.0424051 7.28909 0.0560324 7.05471C0.15447 6.82034 0.365407 6.65159 0.613845 6.60471L5.67166 5.6719L6.60447 0.614089C6.65134 0.365652 6.82009 0.154714 7.05447 0.0562765C7.28884 -0.042161 7.55603 -0.014036 7.76697 0.131277L11.9998 3.05159L16.2326 0.131277C16.4435 -0.014036 16.7107 -0.042161 16.9451 0.0562765ZM7.49978 12C7.49978 10.8066 7.97389 9.66196 8.8178 8.81805C9.66172 7.97413 10.8063 7.50003 11.9998 7.50003C13.1933 7.50003 14.3378 7.97413 15.1818 8.81805C16.0257 9.66196 16.4998 10.8066 16.4998 12C16.4998 13.1935 16.0257 14.3381 15.1818 15.182C14.3378 16.0259 13.1933 16.5 11.9998 16.5C10.8063 16.5 9.66172 16.0259 8.8178 15.182C7.97389 14.3381 7.49978 13.1935 7.49978 12ZM17.9998 12C17.9998 10.4087 17.3676 8.8826 16.2424 7.75739C15.1172 6.63217 13.5911 6.00003 11.9998 6.00003C10.4085 6.00003 8.88236 6.63217 7.75714 7.75739C6.63192 8.8826 5.99978 10.4087 5.99978 12C5.99978 13.5913 6.63192 15.1174 7.75714 16.2427C8.88236 17.3679 10.4085 18 11.9998 18C13.5911 18 15.1172 17.3679 16.2424 16.2427C17.3676 15.1174 17.9998 13.5913 17.9998 12Z" fill="#171717"/>
</g>
<defs>
<clipPath id="clip0_296_228">
<rect width="24" height="24" fill="white"/>
</clipPath>
</defs>
</svg>
