<svg width="25" height="24" viewBox="0 0 25 24" fill="currentColor" xmlns="http://www.w3.org/2000/svg">
    <g clip-path="url(#clip0_343_13)">
    <path d="M12.5 0.375C5.87097 0.375 0.5 5.57812 0.5 12C0.5 18.4219 5.87097 23.625 12.5 23.625C19.129 23.625 24.5 18.4219 24.5 12C24.5 5.57812 19.129 0.375 12.5 0.375ZM18.0645 8.28281C17.8855 10.1203 17.1016 14.5828 16.7048 16.6406C16.5355 17.5125 16.2065 17.8031 15.8871 17.8312C15.1903 17.8922 14.6629 17.3859 13.9855 16.9547C12.9306 16.2844 12.3306 15.8672 11.3097 15.2109C10.1242 14.4563 10.8935 14.0391 11.5661 13.3594C11.7452 13.1812 14.8129 10.4766 14.871 10.2328C14.8806 10.2 14.8855 10.0875 14.8129 10.0266C14.7403 9.96562 14.6387 9.98906 14.5661 10.0031C14.4597 10.025 12.7726 11.1047 9.50484 13.2422C9.02742 13.5609 8.59355 13.7156 8.20323 13.7062C7.77258 13.6969 6.95 13.4719 6.33548 13.2797C5.58548 13.0453 4.98548 12.9187 5.03871 12.5156C5.06452 12.3062 5.3629 12.0922 5.93387 11.8734C9.43064 10.3984 11.7629 9.425 12.9306 8.95312C16.2645 7.6125 16.9565 7.37812 17.4065 7.36875C17.5081 7.36875 17.7258 7.39219 17.871 7.50469C17.9657 7.58538 18.0261 7.69733 18.0403 7.81875C18.0665 7.97205 18.0746 8.12774 18.0645 8.28281Z" fill="#fff"/>
    </g>
    <defs>
        <clipPath id="clip0_343_13">
            <rect width="24" height="24" fill="currentColor" transform="translate(0.5)"/>
        </clipPath>
    </defs>
</svg>
